<svg id="Layer_1" data-name="Layer 1" xmlns="http://www.w3.org/2000/svg" viewBox="0 0 170.57 34.44"><defs><style>.cls-1{fill:#b38712;}.cls-2{fill:#ffed00;}</style></defs><polygon class="cls-1" points="26.39 17.22 13.19 24.84 0 32.46 0 17.22 0 1.99 13.19 9.61 26.39 17.22"/><path class="cls-2" d="M41.49,117.22V82.78L71.32,100Zm2.29-30.47v26.5l23-13.25Z" transform="translate(-14.72 -82.78)"/><polygon class="cls-1" points="83.37 17.22 70.18 24.84 56.98 32.46 56.98 17.22 56.98 1.99 70.18 9.61 83.37 17.22"/><path class="cls-2" d="M98.47,117.22V82.78L128.3,100Zm2.29-30.47v26.5L123.71,100Z" transform="translate(-14.72 -82.78)"/><polygon class="cls-1" points="140.35 17.22 127.16 24.84 113.97 32.46 113.97 17.22 113.97 1.99 127.16 9.61 140.35 17.22"/><path class="cls-2" d="M155.45,117.22V82.78L185.28,100Zm2.3-30.47v26.5L180.69,100Z" transform="translate(-14.72 -82.78)"/></svg>