<svg id="Layer_1" data-name="Layer 1" xmlns="http://www.w3.org/2000/svg" xmlns:xlink="http://www.w3.org/1999/xlink" viewBox="0 0 560.26 95"><defs><style>.cls-1{fill:url(#linear-gradient);}.cls-2{fill:url(#linear-gradient-2);}.cls-3{fill:url(#linear-gradient-3);}.cls-4{fill:url(#linear-gradient-4);}.cls-5{fill:url(#linear-gradient-5);}.cls-6{font-size:48px;fill:#63f;font-family:Montserrat-Bold, Montserrat;font-weight:700;}.cls-7{letter-spacing:0em;}.cls-8{letter-spacing:-0.01em;}.cls-10,.cls-11,.cls-12,.cls-13,.cls-9{fill:#59595b;font-family:Montserrat-Regular, Montserrat;font-weight:400;}.cls-9{letter-spacing:0em;}.cls-10{letter-spacing:-0.02em;}.cls-11{letter-spacing:0em;}.cls-12{letter-spacing:0em;}</style><linearGradient id="linear-gradient" x1="48.48" y1="50" x2="100.92" y2="50" gradientUnits="userSpaceOnUse"><stop offset="0" stop-color="#fd92fd"/><stop offset="0.51" stop-color="#806dfd"/><stop offset="1" stop-color="#6a2dfd"/></linearGradient><linearGradient id="linear-gradient-2" x1="76.21" y1="74.51" x2="122.2" y2="74.51" xlink:href="#linear-gradient"/><linearGradient id="linear-gradient-3" x1="6.63" y1="74.5" x2="73.19" y2="74.5" xlink:href="#linear-gradient"/><linearGradient id="linear-gradient-4" x1="9.62" y1="26.63" x2="73.19" y2="26.63" xlink:href="#linear-gradient"/><linearGradient id="linear-gradient-5" x1="76.2" y1="26.63" x2="143.38" y2="26.63" xlink:href="#linear-gradient"/></defs><path class="cls-1" d="M100.92,50A26.22,26.22,0,1,0,74.7,76.21,26.25,26.25,0,0,0,100.92,50ZM93.78,62.13a39.8,39.8,0,0,0-4.14-1.26,37.78,37.78,0,0,0,1.51-9.53h6.12A22.46,22.46,0,0,1,93.78,62.13Zm-.26-24.69a22.34,22.34,0,0,1,3.75,11.22H91.15a37,37,0,0,0-1.67-10A41.38,41.38,0,0,0,93.52,37.44Zm-1.75-2.28c-1,.33-2.09.63-3.21.9a25.68,25.68,0,0,0-3.62-6.22A22.74,22.74,0,0,1,91.77,35.16Zm-10,13.5c0-2.57-.19-5.62-.51-8.69q3-.27,5.62-.77a34.92,34.92,0,0,1,1.57,9.46Zm6.68,2.68a35.44,35.44,0,0,1-1.43,9c-1.79-.34-3.7-.62-5.71-.8.28-2.89.43-5.73.46-8.16ZM85.93,36.62c-1.56.28-3.22.51-5,.68a36.28,36.28,0,0,0-2.37-9.44C81.58,29.33,84.16,32.46,85.93,36.62Zm-15.63,12c0-3.17.21-6,.47-8.5,1.28.07,2.59.12,3.93.12s2.65-.05,3.94-.12c.26,2.48.43,5.33.47,8.5Zm8.81,2.68c0,2.95-.19,5.61-.42,8-1.3-.07-2.63-.12-4-.12s-2.68.05-4,.12c-.23-2.36-.38-5-.42-8Zm-5.06-24c.22,0,.43,0,.65,0s.43,0,.65,0c.92,1.18,2.15,4.57,3,10.1-1.17.06-2.36.1-3.6.1s-2.43,0-3.6-.1C71.9,32,73.13,28.57,74.05,27.39Zm-3.23.47a36.3,36.3,0,0,0-2.36,9.44c-1.76-.17-3.43-.4-5-.68C65.24,32.46,67.82,29.33,70.82,27.86Zm-3.21,20.8H60.93a35.31,35.31,0,0,1,1.58-9.46q2.66.49,5.62.77C67.8,43,67.65,46.09,67.61,48.66Zm.46,10.84c-2,.18-3.91.46-5.71.8a35.44,35.44,0,0,1-1.43-9h6.68C67.65,53.77,67.79,56.61,68.07,59.5ZM64.46,29.84a25.34,25.34,0,0,0-3.61,6.22c-1.13-.27-2.22-.57-3.21-.9A22.7,22.7,0,0,1,64.46,29.84Zm-8.58,7.6c1.25.44,2.6.84,4,1.2a37.64,37.64,0,0,0-1.67,10H52.13A22.38,22.38,0,0,1,55.88,37.44Zm-.26,24.69a22.35,22.35,0,0,1-3.49-10.79h6.12a37.78,37.78,0,0,0,1.52,9.53A40,40,0,0,0,55.62,62.13Zm1.65,2.29c1-.35,2.18-.67,3.39-1a25.81,25.81,0,0,0,3.8,6.71A22.68,22.68,0,0,1,57.27,64.42Zm6-1.53q2.41-.45,5.13-.72a37.67,37.67,0,0,0,2.44,10C67.7,70.61,65,67.29,63.25,62.89Zm12.1,9.72c-.22,0-.43,0-.65,0s-.43,0-.65,0c-1-1.21-2.23-4.77-3-10.63,1.2-.07,2.42-.11,3.68-.11s2.48.05,3.68.11C77.58,67.84,76.3,71.4,75.35,72.61Zm3.23-.47a37.27,37.27,0,0,0,2.45-10c1.81.18,3.52.42,5.12.72C84.37,67.29,81.71,70.61,78.58,72.14Zm6.36-2a25.83,25.83,0,0,0,3.81-6.71c1.2.3,2.34.62,3.39,1A22.83,22.83,0,0,1,84.94,70.16Z" transform="translate(-6.63 -2.5)"/><path class="cls-2" d="M116.2,51.51h-7.66A33.87,33.87,0,0,1,76.21,83.84v8.44a40.55,40.55,0,0,0,4.53-.41l2.09,5.63,9.94-2.83-1.19-6a41.6,41.6,0,0,0,8.61-5.19l4.73,4,7.32-7.31-4.16-4.86A41.24,41.24,0,0,0,113,66.79l6.38,1.28,2.83-9.94-6.29-2.34A40.83,40.83,0,0,0,116.2,51.51Z" transform="translate(-6.63 -2.5)"/><path class="cls-3" d="M40.86,51.51H32.72A41.59,41.59,0,0,0,33,56L27.2,58.13l1,3.63H21.36a3.1,3.1,0,1,0,0,1.66h7.35L30,68.07,36,66.88a39.79,39.79,0,0,0,2.53,5H12.7a3.1,3.1,0,1,0,0,1.66H39.53c.48.73,1,1.46,1.53,2.17l-3.89,4.56,7.31,7.32L49,83.69a41.76,41.76,0,0,0,8.81,5.21l-1.16,5.77,9.94,2.83,2.07-5.56a40.82,40.82,0,0,0,4.55.36V83.84A33.87,33.87,0,0,1,40.86,51.51Z" transform="translate(-6.63 -2.5)"/><path class="cls-4" d="M12.71,50.76a3.08,3.08,0,0,0,3-2.27H40.86A33.87,33.87,0,0,1,73.19,16.16V8.84c-1.38,0-2.77.13-4.14.3L66.58,2.5,56.63,5.33,58,12.15a41.11,41.11,0,0,0-8.3,4.78l-5.22-4.46-7.31,7.31,4.34,5.09a40.8,40.8,0,0,0-5.06,8.35L30,31.93l-2.83,10,6,2.22c-.15.91-.24,1.82-.31,2.73H15.68a3.09,3.09,0,1,0-3,3.93Z" transform="translate(-6.63 -2.5)"/><path class="cls-5" d="M140.29,25.18a3.08,3.08,0,0,0-3,2.25l-28.15-.13c-.49-.72-1-1.43-1.53-2.13l4.61-5.39-7.32-7.31-5.44,4.64a42.17,42.17,0,0,0-8.12-4.76l1.41-7-10-2.83L80.33,9.21a40.83,40.83,0,0,0-4.13-.35v7.3a33.87,33.87,0,0,1,32.33,32.33h25a3.1,3.1,0,1,0,0-1.65H116c-.07-.86-.15-1.72-.28-2.57l6.44-2.39-1.3-4.58,6.71,0a3.09,3.09,0,0,0,6.07-.8,3.09,3.09,0,0,0-6.07-.85l-7.18,0-1.06-3.71-6.86,1.38A41,41,0,0,0,110.22,29l27.09.13a3.09,3.09,0,0,0,6.07-.8A3.11,3.11,0,0,0,140.29,25.18Z" transform="translate(-6.63 -2.5)"/><text class="cls-6" transform="translate(149.53 70.18)"><tspan class="cls-7">L</tspan><tspan class="cls-8" x="28.8" y="0">e</tspan><tspan x="58.37" y="0">an</tspan><tspan class="cls-9" x="121.15" y="0">Mon</tspan><tspan class="cls-10" x="229.58" y="0">t</tspan><tspan class="cls-11" x="248.16" y="0">eleo</tspan><tspan class="cls-12" x="349.15" y="0">n</tspan><tspan class="cls-13" x="381.74" y="0">e</tspan></text></svg>