<svg id="Layer_1" data-name="Layer 1" xmlns="http://www.w3.org/2000/svg" xmlns:xlink="http://www.w3.org/1999/xlink" viewBox="0 0 172.6 44.6"><defs><style>.cls-1{fill:url(#linear-gradient);}.cls-2{fill:url(#linear-gradient-2);}.cls-3{fill:url(#linear-gradient-3);}.cls-4{fill:url(#linear-gradient-4);}.cls-5{fill:url(#linear-gradient-5);}.cls-6{font-size:12.38px;fill:#59595b;font-family:Montserrat-Bold, Montserrat;font-weight:700;}.cls-7{letter-spacing:0em;}.cls-8{letter-spacing:-0.01em;}.cls-9{letter-spacing:0em;}.cls-10,.cls-11,.cls-12,.cls-13{font-family:Montserrat-Regular, Montserrat;font-weight:400;}.cls-10{letter-spacing:0em;}.cls-11{letter-spacing:-0.02em;}.cls-13{letter-spacing:0em;}</style><linearGradient id="linear-gradient" x1="22.55" y1="25" x2="47.17" y2="25" gradientUnits="userSpaceOnUse"><stop offset="0" stop-color="#fd92fd"/><stop offset="0.51" stop-color="#806dfd"/><stop offset="1" stop-color="#6a2dfd"/></linearGradient><linearGradient id="linear-gradient-2" x1="35.57" y1="36.5" x2="57.16" y2="36.5" xlink:href="#linear-gradient"/><linearGradient id="linear-gradient-3" x1="2.9" y1="36.5" x2="34.15" y2="36.5" xlink:href="#linear-gradient"/><linearGradient id="linear-gradient-4" x1="4.3" y1="14.03" x2="34.15" y2="14.03" xlink:href="#linear-gradient"/><linearGradient id="linear-gradient-5" x1="35.56" y1="14.03" x2="67.1" y2="14.03" xlink:href="#linear-gradient"/></defs><path class="cls-1" d="M47.17,25A12.31,12.31,0,1,0,34.86,37.31,12.32,12.32,0,0,0,47.17,25Zm-3.35,5.7a18.69,18.69,0,0,0-2-.6,17.57,17.57,0,0,0,.71-4.47h2.88A10.75,10.75,0,0,1,43.82,30.7Zm-.13-11.6a10.62,10.62,0,0,1,1.77,5.27H42.58a17.58,17.58,0,0,0-.78-4.71A17.62,17.62,0,0,0,43.69,19.1ZM42.87,18a15,15,0,0,1-1.51.42,11.61,11.61,0,0,0-1.7-2.91A10.71,10.71,0,0,1,42.87,18Zm-4.68,6.34c0-1.21-.09-2.64-.24-4.08.92-.08,1.8-.21,2.63-.36a16.24,16.24,0,0,1,.74,4.44Zm3.13,1.26a16.34,16.34,0,0,1-.67,4.21A26.19,26.19,0,0,0,38,29.46c.13-1.36.2-2.69.22-3.83Zm-1.19-6.91c-.73.13-1.51.24-2.34.32a16.82,16.82,0,0,0-1.11-4.44A7.9,7.9,0,0,1,40.13,18.72Zm-7.34,5.65c0-1.49.1-2.82.22-4,.6,0,1.22.05,1.85.05s1.24,0,1.85-.05c.12,1.17.2,2.5.22,4Zm4.14,1.26c0,1.38-.09,2.63-.2,3.74-.61,0-1.23-.06-1.87-.06s-1.26,0-1.87.06c-.11-1.11-.18-2.36-.2-3.74ZM34.55,14.39l.31,0,.3,0a11.84,11.84,0,0,1,1.39,4.74c-.55,0-1.11,0-1.69,0s-1.14,0-1.69,0A11.89,11.89,0,0,1,34.55,14.39ZM33,14.6A16.82,16.82,0,0,0,31.93,19c-.83-.08-1.61-.19-2.35-.32A7.92,7.92,0,0,1,33,14.6Zm-1.51,9.77H28.39a17,17,0,0,1,.74-4.44c.84.15,1.71.28,2.64.36C31.62,21.73,31.55,23.16,31.53,24.37Zm.22,5.09a26.4,26.4,0,0,0-2.69.38,16.78,16.78,0,0,1-.67-4.21h3.14C31.55,26.77,31.61,28.1,31.75,29.46Zm-1.7-13.93a12.52,12.52,0,0,0-1.7,2.92,14.09,14.09,0,0,1-1.5-.42A10.86,10.86,0,0,1,30.05,15.53ZM26,19.1a17.82,17.82,0,0,0,1.9.56,17.58,17.58,0,0,0-.78,4.71H24.26A10.61,10.61,0,0,1,26,19.1ZM25.9,30.7a10.54,10.54,0,0,1-1.64-5.07h2.88a17.57,17.57,0,0,0,.71,4.47A18,18,0,0,0,25.9,30.7Zm.77,1.07c.49-.17,1-.32,1.6-.46a11.87,11.87,0,0,0,1.78,3.16A10.82,10.82,0,0,1,26.67,31.77Zm2.81-.72c.76-.14,1.56-.25,2.41-.34A17.58,17.58,0,0,0,33,35.4,8,8,0,0,1,29.48,31.05Zm5.68,4.56-.3,0-.31,0c-.44-.56-1-2.24-1.42-5,.56,0,1.14-.05,1.73-.05s1.16,0,1.73.05C36.21,33.37,35.61,35.05,35.16,35.61Zm1.52-.21a18,18,0,0,0,1.15-4.69c.85.09,1.65.2,2.41.34A8,8,0,0,1,36.68,35.4Zm3-.93a11.89,11.89,0,0,0,1.79-3.16c.57.14,1.1.29,1.59.46A10.6,10.6,0,0,1,39.66,34.47Z" transform="translate(-2.9 -2.7)"/><path class="cls-2" d="M54.34,25.71h-3.6A15.9,15.9,0,0,1,35.57,40.89v4c.71,0,1.42-.09,2.12-.19l1,2.64L43.34,46l-.56-2.81a19.34,19.34,0,0,0,4-2.43l2.22,1.89,3.43-3.43-1.95-2.28a19.29,19.29,0,0,0,2.3-4l3,.6,1.33-4.66-2.95-1.1A19.37,19.37,0,0,0,54.34,25.71Z" transform="translate(-2.9 -2.7)"/><path class="cls-3" d="M19,25.71H15.15a18.34,18.34,0,0,0,.14,2.09l-2.73,1,.48,1.7H9.82a1.45,1.45,0,1,0,0,.78h3.44l.63,2.18,2.78-.55a19.54,19.54,0,0,0,1.19,2.32H5.75a1.45,1.45,0,1,0,0,.78H18.34q.35.51.72,1l-1.82,2.14,3.43,3.43,2.11-1.8a19.56,19.56,0,0,0,4.14,2.44L26.37,46,31,47.3l1-2.61a19.28,19.28,0,0,0,2.14.17v-4A15.9,15.9,0,0,1,19,25.71Z" transform="translate(-2.9 -2.7)"/><path class="cls-4" d="M5.76,25.36a1.46,1.46,0,0,0,1.39-1.07H19A15.9,15.9,0,0,1,34.15,9.11V5.68c-.65,0-1.3.06-1.95.14L31,2.7,26.38,4,27,7.23a19.76,19.76,0,0,0-3.9,2.24L20.67,7.38l-3.43,3.43,2,2.39a19.36,19.36,0,0,0-2.38,3.92l-3-.6-1.33,4.67,2.81,1c-.07.43-.11.85-.15,1.28H7.15a1.45,1.45,0,1,0-1.39,1.85Z" transform="translate(-2.9 -2.7)"/><path class="cls-5" d="M65.65,13.35a1.44,1.44,0,0,0-1.4,1.05L51,14.34c-.22-.34-.46-.67-.71-1l2.16-2.53L49.05,7.38,46.49,9.56a19.56,19.56,0,0,0-3.81-2.23L43.34,4,38.67,2.7,37.5,5.85a17.91,17.91,0,0,0-1.94-.16V9.11A15.9,15.9,0,0,1,50.74,24.29H62.47a1.45,1.45,0,1,0,0-.78h-8.2c0-.4-.08-.8-.14-1.2l3-1.12L56.55,19H59.7a1.43,1.43,0,0,0,1.39,1.07,1.45,1.45,0,1,0,0-2.9,1.43,1.43,0,0,0-1.4,1.05H56.33l-.5-1.74-3.22.64a22.2,22.2,0,0,0-1.08-2l12.72.06a1.45,1.45,0,0,0,2.85-.37A1.45,1.45,0,0,0,65.65,13.35Z" transform="translate(-2.9 -2.7)"/><text class="cls-6" transform="translate(66.68 25.91)"><tspan class="cls-7">L</tspan><tspan class="cls-8" x="7.43" y="0">e</tspan><tspan class="cls-9" x="15.05" y="0">an</tspan><tspan class="cls-10" x="31.24" y="0">Mon</tspan><tspan class="cls-11" x="59.2" y="0">t</tspan><tspan class="cls-12" x="63.99" y="0">eleo</tspan><tspan class="cls-13" x="90.04" y="0">n</tspan><tspan class="cls-12" x="98.44" y="0">e</tspan></text></svg>