<svg id="Layer_1" data-name="Layer 1" xmlns="http://www.w3.org/2000/svg" xmlns:xlink="http://www.w3.org/1999/xlink" viewBox="0 0 121.02 86.52"><defs><style>.cls-1{fill:url(#linear-gradient);}.cls-2{fill:url(#linear-gradient-2);}.cls-3{fill:url(#linear-gradient-3);}.cls-4{fill:url(#linear-gradient-4);}.cls-5{fill:url(#linear-gradient-5);}.cls-6{font-size:14.14px;fill:#59595b;font-family:Montserrat-Bold, Montserrat;font-weight:700;}.cls-7{letter-spacing:0em;}.cls-8{letter-spacing:-0.02em;}.cls-10,.cls-11,.cls-9{font-family:Montserrat-Regular, Montserrat;font-weight:400;}.cls-10{letter-spacing:-0.02em;}.cls-11{letter-spacing:0em;}</style><linearGradient id="linear-gradient" x1="46.14" y1="52.73" x2="81.46" y2="52.73" gradientUnits="userSpaceOnUse"><stop offset="0" stop-color="#fd92fd"/><stop offset="0.51" stop-color="#806dfd"/><stop offset="1" stop-color="#6a2dfd"/></linearGradient><linearGradient id="linear-gradient-2" x1="64.81" y1="69.23" x2="95.78" y2="69.23" xlink:href="#linear-gradient"/><linearGradient id="linear-gradient-3" x1="17.95" y1="69.23" x2="62.78" y2="69.23" xlink:href="#linear-gradient"/><linearGradient id="linear-gradient-4" x1="19.96" y1="36.99" x2="62.78" y2="36.99" xlink:href="#linear-gradient"/><linearGradient id="linear-gradient-5" x1="64.81" y1="36.99" x2="110.05" y2="36.99" xlink:href="#linear-gradient"/></defs><path class="cls-1" d="M81.46,52.73A17.66,17.66,0,1,0,63.8,70.38,17.68,17.68,0,0,0,81.46,52.73ZM76.65,60.9a27,27,0,0,0-2.79-.85,25.59,25.59,0,0,0,1-6.42H79A15.26,15.26,0,0,1,76.65,60.9Zm-.18-16.63A15.11,15.11,0,0,1,79,51.82H74.88a25.28,25.28,0,0,0-1.13-6.75C74.72,44.83,75.63,44.56,76.47,44.27Zm-1.18-1.53c-.67.22-1.4.42-2.16.6a17,17,0,0,0-2.44-4.19A15.22,15.22,0,0,1,75.29,42.74Zm-6.72,9.08c0-1.73-.13-3.78-.34-5.85,1.33-.12,2.59-.3,3.78-.52a23.51,23.51,0,0,1,1.06,6.37Zm4.5,1.81a23.71,23.71,0,0,1-1,6c-1.21-.23-2.5-.41-3.85-.54.19-1.94.29-3.86.31-5.49Zm-1.71-9.92c-1,.2-2.17.35-3.36.46a24.49,24.49,0,0,0-1.59-6.36A11.33,11.33,0,0,1,71.36,43.71ZM60.83,51.82c0-2.13.14-4,.32-5.72.86,0,1.74.08,2.65.08s1.78,0,2.65-.08c.17,1.67.29,3.59.32,5.72Zm5.94,1.81c0,2-.13,3.78-.29,5.36-.87,0-1.77-.08-2.68-.08S62,59,61.11,59c-.15-1.58-.25-3.37-.28-5.36ZM63.36,37.5l.44,0,.44,0c.62.79,1.44,3.08,2,6.8-.79,0-1.59.07-2.42.07s-1.64,0-2.43-.07C61.91,40.58,62.74,38.29,63.36,37.5Zm-2.17.31a24.76,24.76,0,0,0-1.6,6.36c-1.18-.11-2.3-.26-3.36-.46A11.31,11.31,0,0,1,61.19,37.81ZM59,51.82h-4.5a23.91,23.91,0,0,1,1.06-6.37c1.2.22,2.46.4,3.79.52C59.15,48,59.05,50.09,59,51.82Zm.31,7.3c-1.35.13-2.63.31-3.85.54a24.16,24.16,0,0,1-1-6H59C59.05,55.26,59.14,57.18,59.33,59.12Zm-2.43-20a17,17,0,0,0-2.43,4.19c-.76-.18-1.5-.38-2.16-.6A15,15,0,0,1,56.9,39.15Zm-5.78,5.12c.84.29,1.75.56,2.72.8a25.28,25.28,0,0,0-1.12,6.75H48.6A15.1,15.1,0,0,1,51.12,44.27ZM51,60.9a15,15,0,0,1-2.35-7.27h4.12a25.14,25.14,0,0,0,1,6.42A25.62,25.62,0,0,0,51,60.9Zm1.11,1.54c.7-.24,1.47-.46,2.28-.66a17.32,17.32,0,0,0,2.56,4.53A15.2,15.2,0,0,1,52.06,62.44Zm4-1c1.09-.21,2.24-.37,3.46-.49a25.3,25.3,0,0,0,1.65,6.72C59.08,66.61,57.28,64.37,56.08,61.41ZM64.24,68l-.44,0-.44,0c-.64-.81-1.5-3.21-2-7.16.81,0,1.63-.07,2.48-.07s1.67,0,2.48.07C65.74,64.74,64.88,67.14,64.24,68Zm2.17-.31a25.3,25.3,0,0,0,1.65-6.72c1.22.12,2.37.28,3.45.49C70.31,64.37,68.52,66.61,66.41,67.64Zm4.28-1.33a17.33,17.33,0,0,0,2.57-4.53c.81.2,1.58.42,2.28.66A15.49,15.49,0,0,1,70.69,66.31Z" transform="translate(-3.49 -20.74)"/><path class="cls-2" d="M91.75,53.75H86.59A22.81,22.81,0,0,1,64.81,75.52V81.2a28.31,28.31,0,0,0,3-.27l1.41,3.79L76,82.81l-.81-4a28.07,28.07,0,0,0,5.8-3.5L84.15,78l4.93-4.92-2.8-3.27A28.17,28.17,0,0,0,89.58,64l4.3.86,1.9-6.7-4.23-1.58A27.48,27.48,0,0,0,91.75,53.75Z" transform="translate(-3.49 -20.74)"/><path class="cls-3" d="M41,53.74H35.52c0,1,.08,2,.21,3L31.81,58.2l.69,2.45H27.88a2.09,2.09,0,1,0,0,1.11h4.94l.89,3.14,4-.8a29,29,0,0,0,1.7,3.33H22a2.08,2.08,0,1,0,0,1.12H40.11c.33.49.67,1,1,1.46l-2.62,3.07L43.44,78l3-2.59a28.2,28.2,0,0,0,5.94,3.51l-.78,3.88,6.69,1.91L59.72,81a28.47,28.47,0,0,0,3.06.25v-5.7A22.81,22.81,0,0,1,41,53.74Z" transform="translate(-3.49 -20.74)"/><path class="cls-4" d="M22.05,53.24a2.08,2.08,0,0,0,2-1.53H41A22.8,22.8,0,0,1,62.78,29.94V25a26.17,26.17,0,0,0-2.79.2l-1.66-4.47-6.7,1.9.92,4.6A27.67,27.67,0,0,0,47,30.45l-3.52-3-4.92,4.92,2.92,3.43A27.63,27.63,0,0,0,38,41.43l-4.32-.87-1.9,6.7,4,1.5c-.1.61-.16,1.22-.21,1.83H24.05a2.08,2.08,0,1,0-2,2.65Z" transform="translate(-3.49 -20.74)"/><path class="cls-5" d="M108,36a2.07,2.07,0,0,0-2,1.52l-19-.09c-.32-.49-.66-1-1-1.43l3.1-3.63-4.93-4.93-3.67,3.13A28.2,28.2,0,0,0,75,27.37l1-4.73-6.7-1.9-1.68,4.51c-.93-.12-1.85-.19-2.78-.23v4.92A22.81,22.81,0,0,1,86.59,51.71h16.82a2.09,2.09,0,1,0,0-1.11H91.64c0-.58-.11-1.16-.19-1.73l4.34-1.61-.88-3.09,4.52,0a2.06,2.06,0,0,0,2,1.53,2.09,2.09,0,1,0-2-2.65l-4.84,0-.71-2.5-4.62.92a29.13,29.13,0,0,0-1.54-2.92l18.24.08A2.08,2.08,0,1,0,108,36Z" transform="translate(-3.49 -20.74)"/><text class="cls-6" transform="translate(0 82.76)"><tspan class="cls-7">L</tspan><tspan class="cls-8" x="8.49" y="0">e</tspan><tspan x="17.2" y="0">an</tspan><tspan class="cls-9" x="35.7" y="0">Mon</tspan><tspan class="cls-10" x="67.65" y="0">t</tspan><tspan class="cls-9" x="73.12" y="0">eleo</tspan><tspan class="cls-11" x="102.88" y="0">n</tspan><tspan class="cls-9" x="112.48" y="0">e</tspan></text></svg>