<svg id="Layer_1" data-name="Layer 1" xmlns="http://www.w3.org/2000/svg" xmlns:xlink="http://www.w3.org/1999/xlink" viewBox="0 0 308.05 203.67"><defs><style>.cls-1{fill:url(#linear-gradient);}.cls-2{fill:url(#linear-gradient-2);}.cls-3{fill:url(#linear-gradient-3);}.cls-4{fill:url(#linear-gradient-4);}.cls-5{fill:url(#linear-gradient-5);}.cls-6{font-size:36px;fill:#63f;font-family:Montserrat-Bold, Montserrat;font-weight:700;}.cls-7{letter-spacing:0em;}.cls-8{letter-spacing:-0.02em;}.cls-10,.cls-9{letter-spacing:0em;}.cls-10,.cls-11,.cls-12,.cls-13{fill:#59595b;font-family:Montserrat-Regular, Montserrat;font-weight:400;}.cls-11{letter-spacing:-0.02em;}.cls-13{letter-spacing:0em;}</style><linearGradient id="linear-gradient" x1="137.5" y1="98.16" x2="221.54" y2="98.16" gradientUnits="userSpaceOnUse"><stop offset="0" stop-color="#fd92fd"/><stop offset="0.51" stop-color="#806dfd"/><stop offset="1" stop-color="#6a2dfd"/></linearGradient><linearGradient id="linear-gradient-2" x1="181.94" y1="137.44" x2="255.64" y2="137.44" xlink:href="#linear-gradient"/><linearGradient id="linear-gradient-3" x1="70.42" y1="137.43" x2="177.1" y2="137.43" xlink:href="#linear-gradient"/><linearGradient id="linear-gradient-4" x1="75.21" y1="60.71" x2="177.1" y2="60.71" xlink:href="#linear-gradient"/><linearGradient id="linear-gradient-5" x1="181.93" y1="60.71" x2="289.58" y2="60.71" xlink:href="#linear-gradient"/></defs><path class="cls-1" d="M221.54,98.16a42,42,0,1,0-42,42A42.06,42.06,0,0,0,221.54,98.16ZM210.1,117.6a62.07,62.07,0,0,0-6.64-2,60.39,60.39,0,0,0,2.42-15.27h9.81A36,36,0,0,1,210.1,117.6ZM209.67,78a35.85,35.85,0,0,1,6,18h-9.81A59.43,59.43,0,0,0,203.21,80C205.51,79.38,207.68,78.74,209.67,78Zm-2.8-3.65c-1.59.53-3.34,1-5.15,1.44a40.41,40.41,0,0,0-5.79-10A36.4,36.4,0,0,1,206.87,74.38ZM190.88,96c-.06-4.12-.31-9-.82-13.92,3.16-.29,6.16-.71,9-1.24A56.55,56.55,0,0,1,201.59,96Zm10.71,4.3a57.15,57.15,0,0,1-2.29,14.36c-2.88-.55-5.94-1-9.16-1.29.46-4.63.69-9.18.74-13.07Zm-4.07-23.59c-2.5.45-5.17.82-8,1.08-.8-5.77-2-11.22-3.79-15.13C190.55,65,194.67,70.05,197.52,76.72ZM172.46,96c.06-5.08.34-9.64.75-13.62,2.06.11,4.15.19,6.31.19s4.24-.08,6.3-.19c.42,4,.7,8.54.76,13.62Zm14.12,4.3c-.06,4.73-.3,9-.67,12.77-2.09-.12-4.21-.2-6.39-.2s-4.31.08-6.39.2c-.37-3.78-.61-8-.67-12.77Zm-8.11-38.38c.35,0,.7,0,1.05,0s.69,0,1,0c1.48,1.88,3.44,7.31,4.73,16.18-1.88.1-3.79.16-5.77.16s-3.89-.06-5.77-.16C175,69.24,177,63.81,178.47,61.93Zm-5.17.74c-1.76,3.91-3,9.36-3.79,15.13-2.82-.26-5.49-.63-8-1.08C164.36,70.05,168.49,65,173.3,62.67ZM168.16,96H157.45A57,57,0,0,1,160,80.85c2.85.53,5.84,1,9,1.24C168.46,87,168.22,91.89,168.16,96Zm.74,17.37c-3.22.3-6.28.74-9.16,1.29a56.71,56.71,0,0,1-2.29-14.36h10.71C168.21,104.2,168.44,108.75,168.9,113.38Zm-5.8-47.53a41.31,41.31,0,0,0-5.79,10c-1.81-.43-3.55-.91-5.14-1.44A36.52,36.52,0,0,1,163.1,65.85ZM149.36,78q3,1.06,6.47,1.92A59.82,59.82,0,0,0,153.15,96h-9.81A35.94,35.94,0,0,1,149.36,78Zm-.43,39.57a36.09,36.09,0,0,1-5.59-17.29h9.81a60.83,60.83,0,0,0,2.43,15.27A63,63,0,0,0,148.93,117.6Zm2.65,3.68c1.67-.57,3.5-1.09,5.43-1.56a41.3,41.3,0,0,0,6.09,10.76A36.59,36.59,0,0,1,151.58,121.28Zm9.58-2.46q3.87-.73,8.23-1.15c.8,6.1,2.06,11.89,3.91,16C168.3,131.19,164,125.88,161.16,118.82Zm19.4,15.58c-.35,0-.69,0-1,0s-.7,0-1.05,0c-1.52-1.94-3.57-7.65-4.85-17,1.92-.1,3.87-.17,5.9-.17s4,.07,5.9.17C184.14,126.75,182.09,132.46,180.56,134.4Zm5.18-.75c1.85-4.09,3.11-9.88,3.92-16,2.9.28,5.65.66,8.21,1.15C195,125.88,190.74,131.19,185.74,133.65Zm10.19-3.17a41.61,41.61,0,0,0,6.1-10.76c1.92.47,3.76,1,5.43,1.56A36.74,36.74,0,0,1,195.93,130.48Z" transform="translate(-25.98 -22.04)"/><path class="cls-2" d="M246,100.59H233.75a54.27,54.27,0,0,1-51.81,51.8v13.53a68,68,0,0,0,7.25-.65l3.35,9,15.94-4.54-1.92-9.58a66.13,66.13,0,0,0,13.81-8.32l7.58,6.46,11.72-11.71L233,138.81a67,67,0,0,0,7.86-13.73l10.23,2,4.53-15.93-10.07-3.75A68.51,68.51,0,0,0,246,100.59Z" transform="translate(-25.98 -22.04)"/><path class="cls-3" d="M125.28,100.58h-13a71.37,71.37,0,0,0,.5,7.14l-9.34,3.47,1.66,5.82H94a5,5,0,1,0,0,2.66H105.8l2.12,7.45,9.52-1.9a65.07,65.07,0,0,0,4,7.93H80.14a5,5,0,1,0,0,2.66h43c.77,1.18,1.59,2.34,2.45,3.48l-6.24,7.31,11.72,11.72,7.22-6.16a67.26,67.26,0,0,0,14.11,8.35l-1.85,9.25,15.93,4.53,3.32-8.91a68.62,68.62,0,0,0,7.29.58V152.39A54.29,54.29,0,0,1,125.28,100.58Z" transform="translate(-25.98 -22.04)"/><path class="cls-4" d="M80.17,99.38a5,5,0,0,0,4.76-3.64h40.35A54.29,54.29,0,0,1,177.1,43.93V32.2c-2.22.06-4.44.2-6.64.48L166.5,22l-15.94,4.53,2.19,10.93a66.4,66.4,0,0,0-13.3,7.66L131.08,38,119.36,49.73l7,8.15a66.7,66.7,0,0,0-8.11,13.39l-10.29-2.06-4.53,15.93L113,88.71c-.23,1.45-.38,2.91-.49,4.38H84.93a5,5,0,1,0-4.76,6.29Z" transform="translate(-25.98 -22.04)"/><path class="cls-5" d="M284.64,58.38A5,5,0,0,0,279.86,62l-45.12-.21c-.78-1.15-1.58-2.29-2.44-3.41l7.37-8.64L228,38l-8.73,7.45a66.53,66.53,0,0,0-13-7.63l2.25-11.26L192.54,22l-4,10.75a63.81,63.81,0,0,0-6.61-.56v11.7a54.28,54.28,0,0,1,51.82,51.82h40a5,5,0,1,0,0-2.66h-28c-.11-1.37-.25-2.75-.45-4.11l10.33-3.84-2.09-7.33,10.75,0a5,5,0,1,0,0-2.66l-11.52,0-1.69-5.94-11,2.2a68,68,0,0,0-3.67-7l43.41.2a5,5,0,1,0,4.79-6.27Z" transform="translate(-25.98 -22.04)"/><text class="cls-6" transform="translate(0 194.1)"><tspan class="cls-7">L</tspan><tspan class="cls-8" x="21.6" y="0">e</tspan><tspan class="cls-9" x="43.78" y="0">an</tspan><tspan class="cls-10" x="90.86" y="0">Mon</tspan><tspan class="cls-11" x="172.19" y="0">t</tspan><tspan class="cls-12" x="186.12" y="0">eleo</tspan><tspan class="cls-13" x="261.86" y="0">n</tspan><tspan class="cls-12" x="286.3" y="0">e</tspan></text></svg>